<mxfile host="app.diagrams.net" agent="Mozilla/5.0 (Windows NT 10.0; Win64; x64) AppleWebKit/537.36 (KHTML, like Gecko) Chrome/134.0.0.0 Safari/537.36" version="26.2.4">
  <diagram name="Página-1" id="qAXUH7EDQEHYW5D28Ien">
    <mxGraphModel grid="1" page="0" gridSize="12" guides="1" tooltips="1" connect="1" arrows="1" fold="1" pageScale="1" pageWidth="827" pageHeight="1169" math="0" shadow="0">
      <root>
        <mxCell id="0" />
        <mxCell id="1" parent="0" />
        <mxCell id="FA6ShiBXcQoJXibSyqjT-24" style="edgeStyle=orthogonalEdgeStyle;rounded=0;orthogonalLoop=1;jettySize=auto;html=1;exitX=1;exitY=0.5;exitDx=0;exitDy=0;entryX=0;entryY=0.5;entryDx=0;entryDy=0;dashed=1;endArrow=classic;startFill=0;endFill=1;" edge="1" parent="1" source="FA6ShiBXcQoJXibSyqjT-1" target="FA6ShiBXcQoJXibSyqjT-9">
          <mxGeometry relative="1" as="geometry" />
        </mxCell>
        <mxCell id="FA6ShiBXcQoJXibSyqjT-42" style="edgeStyle=orthogonalEdgeStyle;rounded=0;orthogonalLoop=1;jettySize=auto;html=1;exitX=0;exitY=0.5;exitDx=0;exitDy=0;endArrow=none;startFill=0;" edge="1" parent="1" source="FA6ShiBXcQoJXibSyqjT-1">
          <mxGeometry relative="1" as="geometry">
            <mxPoint x="132" y="229.58823529411768" as="targetPoint" />
          </mxGeometry>
        </mxCell>
        <mxCell id="FA6ShiBXcQoJXibSyqjT-1" value="Iniciar Missão" style="ellipse;whiteSpace=wrap;html=1;" vertex="1" parent="1">
          <mxGeometry x="220" y="200" width="140" height="60" as="geometry" />
        </mxCell>
        <mxCell id="FA6ShiBXcQoJXibSyqjT-2" value="Militar Operador&lt;br&gt;do Drone" style="shape=umlActor;verticalLabelPosition=bottom;verticalAlign=top;html=1;outlineConnect=0;" vertex="1" parent="1">
          <mxGeometry x="100" y="200" width="30" height="60" as="geometry" />
        </mxCell>
        <mxCell id="FA6ShiBXcQoJXibSyqjT-23" style="edgeStyle=orthogonalEdgeStyle;rounded=0;orthogonalLoop=1;jettySize=auto;html=1;exitX=0.5;exitY=1;exitDx=0;exitDy=0;entryX=0.5;entryY=0;entryDx=0;entryDy=0;dashed=1;endArrow=none;startFill=1;endFill=1;startArrow=classic;" edge="1" parent="1" source="FA6ShiBXcQoJXibSyqjT-7" target="FA6ShiBXcQoJXibSyqjT-1">
          <mxGeometry relative="1" as="geometry" />
        </mxCell>
        <mxCell id="FA6ShiBXcQoJXibSyqjT-7" value="Armazenar dados da missão" style="ellipse;whiteSpace=wrap;html=1;" vertex="1" parent="1">
          <mxGeometry x="200" y="70" width="180" height="70" as="geometry" />
        </mxCell>
        <mxCell id="FA6ShiBXcQoJXibSyqjT-27" style="edgeStyle=orthogonalEdgeStyle;rounded=0;orthogonalLoop=1;jettySize=auto;html=1;exitX=1;exitY=0.5;exitDx=0;exitDy=0;entryX=0;entryY=0.5;entryDx=0;entryDy=0;dashed=1;endArrow=classic;startFill=0;endFill=1;" edge="1" parent="1" source="FA6ShiBXcQoJXibSyqjT-9" target="FA6ShiBXcQoJXibSyqjT-26">
          <mxGeometry relative="1" as="geometry" />
        </mxCell>
        <mxCell id="FA6ShiBXcQoJXibSyqjT-9" value="Enviar dados para o sistema de banco de dados" style="ellipse;whiteSpace=wrap;html=1;" vertex="1" parent="1">
          <mxGeometry x="430" y="190" width="190" height="80" as="geometry" />
        </mxCell>
        <mxCell id="FA6ShiBXcQoJXibSyqjT-13" value="&amp;lt;include&amp;gt;" style="text;html=1;align=center;verticalAlign=middle;resizable=0;points=[];autosize=1;strokeColor=none;fillColor=none;" vertex="1" parent="1">
          <mxGeometry x="350" y="190" width="80" height="30" as="geometry" />
        </mxCell>
        <mxCell id="FA6ShiBXcQoJXibSyqjT-14" value="&lt;span style=&quot;color: rgb(0, 0, 0); font-family: Helvetica; font-size: 12px; font-style: normal; font-variant-ligatures: normal; font-variant-caps: normal; font-weight: 400; letter-spacing: normal; orphans: 2; text-align: center; text-indent: 0px; text-transform: none; widows: 2; word-spacing: 0px; -webkit-text-stroke-width: 0px; white-space: nowrap; text-decoration-thickness: initial; text-decoration-style: initial; text-decoration-color: initial; float: none; display: inline !important;&quot;&gt;&amp;lt;include&amp;gt;&lt;/span&gt;" style="text;whiteSpace=wrap;html=1;" vertex="1" parent="1">
          <mxGeometry x="230" y="150" width="90" height="40" as="geometry" />
        </mxCell>
        <mxCell id="FA6ShiBXcQoJXibSyqjT-17" value="Militar da Central &lt;br&gt;de Controle" style="shape=umlActor;verticalLabelPosition=bottom;verticalAlign=top;html=1;outlineConnect=0;" vertex="1" parent="1">
          <mxGeometry x="1248" y="689" width="30" height="60" as="geometry" />
        </mxCell>
        <mxCell id="FA6ShiBXcQoJXibSyqjT-61" style="edgeStyle=orthogonalEdgeStyle;rounded=0;orthogonalLoop=1;jettySize=auto;html=1;exitX=0.5;exitY=0;exitDx=0;exitDy=0;exitPerimeter=0;entryX=0;entryY=0.5;entryDx=0;entryDy=0;endArrow=none;startFill=0;" edge="1" parent="1" source="FA6ShiBXcQoJXibSyqjT-20" target="FA6ShiBXcQoJXibSyqjT-38">
          <mxGeometry relative="1" as="geometry" />
        </mxCell>
        <mxCell id="FA6ShiBXcQoJXibSyqjT-20" value="Sistema de&lt;br&gt;Auditoria" style="shape=umlActor;verticalLabelPosition=bottom;verticalAlign=top;html=1;outlineConnect=0;" vertex="1" parent="1">
          <mxGeometry x="576" y="492" width="30" height="60" as="geometry" />
        </mxCell>
        <mxCell id="FA6ShiBXcQoJXibSyqjT-21" value="Sistema de Banco&lt;br&gt;de Dados" style="shape=umlActor;verticalLabelPosition=bottom;verticalAlign=top;html=1;outlineConnect=0;" vertex="1" parent="1">
          <mxGeometry x="1063.5" y="200" width="30" height="60" as="geometry" />
        </mxCell>
        <mxCell id="FA6ShiBXcQoJXibSyqjT-29" value="" style="edgeStyle=orthogonalEdgeStyle;rounded=0;orthogonalLoop=1;jettySize=auto;html=1;dashed=1;" edge="1" parent="1" source="FA6ShiBXcQoJXibSyqjT-26" target="FA6ShiBXcQoJXibSyqjT-28">
          <mxGeometry relative="1" as="geometry" />
        </mxCell>
        <mxCell id="FA6ShiBXcQoJXibSyqjT-26" value="Receber dados em&lt;br&gt;tempo real" style="ellipse;whiteSpace=wrap;html=1;" vertex="1" parent="1">
          <mxGeometry x="731" y="84" width="156" height="80" as="geometry" />
        </mxCell>
        <mxCell id="FA6ShiBXcQoJXibSyqjT-37" value="" style="edgeStyle=orthogonalEdgeStyle;rounded=0;orthogonalLoop=1;jettySize=auto;html=1;dashed=1;" edge="1" parent="1" source="FA6ShiBXcQoJXibSyqjT-28" target="FA6ShiBXcQoJXibSyqjT-36">
          <mxGeometry relative="1" as="geometry" />
        </mxCell>
        <mxCell id="FA6ShiBXcQoJXibSyqjT-41" style="edgeStyle=orthogonalEdgeStyle;rounded=0;orthogonalLoop=1;jettySize=auto;html=1;exitX=1;exitY=0.5;exitDx=0;exitDy=0;endArrow=none;startFill=0;" edge="1" parent="1" source="FA6ShiBXcQoJXibSyqjT-28" target="FA6ShiBXcQoJXibSyqjT-21">
          <mxGeometry relative="1" as="geometry" />
        </mxCell>
        <mxCell id="FA6ShiBXcQoJXibSyqjT-53" value="" style="edgeStyle=orthogonalEdgeStyle;rounded=0;orthogonalLoop=1;jettySize=auto;html=1;dashed=1;" edge="1" parent="1" source="FA6ShiBXcQoJXibSyqjT-28">
          <mxGeometry relative="1" as="geometry">
            <mxPoint x="808.5000000000002" y="364" as="targetPoint" />
          </mxGeometry>
        </mxCell>
        <mxCell id="FA6ShiBXcQoJXibSyqjT-28" value="Armazenar dados em&lt;br&gt;tempo real" style="ellipse;whiteSpace=wrap;html=1;" vertex="1" parent="1">
          <mxGeometry x="719.5" y="204" width="178" height="80" as="geometry" />
        </mxCell>
        <mxCell id="FA6ShiBXcQoJXibSyqjT-33" style="edgeStyle=orthogonalEdgeStyle;rounded=0;orthogonalLoop=1;jettySize=auto;html=1;exitX=1;exitY=0.5;exitDx=0;exitDy=0;entryX=0.5;entryY=0;entryDx=0;entryDy=0;entryPerimeter=0;endArrow=none;startFill=0;" edge="1" parent="1" source="FA6ShiBXcQoJXibSyqjT-26" target="FA6ShiBXcQoJXibSyqjT-21">
          <mxGeometry relative="1" as="geometry" />
        </mxCell>
        <mxCell id="FA6ShiBXcQoJXibSyqjT-39" value="" style="edgeStyle=orthogonalEdgeStyle;rounded=0;orthogonalLoop=1;jettySize=auto;html=1;dashed=1;" edge="1" parent="1" source="FA6ShiBXcQoJXibSyqjT-36" target="FA6ShiBXcQoJXibSyqjT-38">
          <mxGeometry relative="1" as="geometry" />
        </mxCell>
        <mxCell id="FA6ShiBXcQoJXibSyqjT-51" style="edgeStyle=orthogonalEdgeStyle;rounded=0;orthogonalLoop=1;jettySize=auto;html=1;exitX=1;exitY=0.5;exitDx=0;exitDy=0;endArrow=none;startFill=0;" edge="1" parent="1" source="FA6ShiBXcQoJXibSyqjT-36">
          <mxGeometry relative="1" as="geometry">
            <mxPoint x="1056" y="300" as="targetPoint" />
            <Array as="points">
              <mxPoint x="1056" y="350" />
              <mxPoint x="1056" y="300" />
            </Array>
          </mxGeometry>
        </mxCell>
        <mxCell id="FA6ShiBXcQoJXibSyqjT-36" value="Gerar logs da&lt;div&gt;missão&lt;/div&gt;" style="ellipse;whiteSpace=wrap;html=1;" vertex="1" parent="1">
          <mxGeometry x="731" y="324" width="155" height="52" as="geometry" />
        </mxCell>
        <mxCell id="FA6ShiBXcQoJXibSyqjT-44" value="" style="edgeStyle=orthogonalEdgeStyle;rounded=0;orthogonalLoop=1;jettySize=auto;html=1;dashed=1;" edge="1" parent="1" source="FA6ShiBXcQoJXibSyqjT-38" target="FA6ShiBXcQoJXibSyqjT-43">
          <mxGeometry relative="1" as="geometry" />
        </mxCell>
        <mxCell id="FA6ShiBXcQoJXibSyqjT-38" value="Proteger logs e dados&lt;div&gt;com criptografia&lt;/div&gt;" style="ellipse;whiteSpace=wrap;html=1;" vertex="1" parent="1">
          <mxGeometry x="725.25" y="420" width="167.5" height="74" as="geometry" />
        </mxCell>
        <mxCell id="FA6ShiBXcQoJXibSyqjT-49" style="edgeStyle=orthogonalEdgeStyle;rounded=0;orthogonalLoop=1;jettySize=auto;html=1;exitX=1;exitY=0.5;exitDx=0;exitDy=0;entryX=0;entryY=0.5;entryDx=0;entryDy=0;endArrow=classic;startFill=0;endFill=1;dashed=1;" edge="1" parent="1" source="FA6ShiBXcQoJXibSyqjT-43" target="FA6ShiBXcQoJXibSyqjT-48">
          <mxGeometry relative="1" as="geometry" />
        </mxCell>
        <mxCell id="FA6ShiBXcQoJXibSyqjT-62" style="edgeStyle=orthogonalEdgeStyle;rounded=0;orthogonalLoop=1;jettySize=auto;html=1;exitX=0;exitY=0.5;exitDx=0;exitDy=0;endArrow=none;startFill=0;" edge="1" parent="1" source="FA6ShiBXcQoJXibSyqjT-43" target="FA6ShiBXcQoJXibSyqjT-20">
          <mxGeometry relative="1" as="geometry" />
        </mxCell>
        <mxCell id="FA6ShiBXcQoJXibSyqjT-43" value="Adicionar assinaturas&lt;div&gt;digitais&amp;nbsp;&lt;/div&gt;" style="ellipse;whiteSpace=wrap;html=1;" vertex="1" parent="1">
          <mxGeometry x="713" y="552" width="191" height="77" as="geometry" />
        </mxCell>
        <mxCell id="FA6ShiBXcQoJXibSyqjT-50" style="edgeStyle=orthogonalEdgeStyle;rounded=0;orthogonalLoop=1;jettySize=auto;html=1;exitX=0.5;exitY=0;exitDx=0;exitDy=0;endArrow=none;startFill=0;" edge="1" parent="1" source="FA6ShiBXcQoJXibSyqjT-48">
          <mxGeometry relative="1" as="geometry">
            <mxPoint x="1078.794117647059" y="300" as="targetPoint" />
          </mxGeometry>
        </mxCell>
        <mxCell id="FA6ShiBXcQoJXibSyqjT-69" style="edgeStyle=orthogonalEdgeStyle;rounded=0;orthogonalLoop=1;jettySize=auto;html=1;exitX=0.5;exitY=1;exitDx=0;exitDy=0;entryX=0.5;entryY=0;entryDx=0;entryDy=0;endArrow=none;startFill=0;" edge="1" parent="1" source="FA6ShiBXcQoJXibSyqjT-48" target="FA6ShiBXcQoJXibSyqjT-63">
          <mxGeometry relative="1" as="geometry" />
        </mxCell>
        <mxCell id="FA6ShiBXcQoJXibSyqjT-48" value="Armazenar logs&amp;nbsp;&lt;span style=&quot;background-color: transparent; color: light-dark(rgb(0, 0, 0), rgb(255, 255, 255));&quot;&gt;e dados criptografados&lt;/span&gt;" style="ellipse;whiteSpace=wrap;html=1;" vertex="1" parent="1">
          <mxGeometry x="984" y="544.5" width="189" height="92" as="geometry" />
        </mxCell>
        <mxCell id="FA6ShiBXcQoJXibSyqjT-54" value="&amp;lt;include&amp;gt;" style="text;html=1;align=center;verticalAlign=middle;resizable=0;points=[];autosize=1;strokeColor=none;fillColor=none;" vertex="1" parent="1">
          <mxGeometry x="588" y="164" width="80" height="30" as="geometry" />
        </mxCell>
        <mxCell id="FA6ShiBXcQoJXibSyqjT-55" value="&amp;lt;include&amp;gt;" style="text;html=1;align=center;verticalAlign=middle;resizable=0;points=[];autosize=1;strokeColor=none;fillColor=none;" vertex="1" parent="1">
          <mxGeometry x="731" y="170" width="80" height="30" as="geometry" />
        </mxCell>
        <mxCell id="FA6ShiBXcQoJXibSyqjT-56" value="&amp;lt;include&amp;gt;" style="text;html=1;align=center;verticalAlign=middle;resizable=0;points=[];autosize=1;strokeColor=none;fillColor=none;" vertex="1" parent="1">
          <mxGeometry x="731" y="294" width="80" height="30" as="geometry" />
        </mxCell>
        <mxCell id="FA6ShiBXcQoJXibSyqjT-57" value="&amp;lt;include&amp;gt;" style="text;html=1;align=center;verticalAlign=middle;resizable=0;points=[];autosize=1;strokeColor=none;fillColor=none;" vertex="1" parent="1">
          <mxGeometry x="731" y="384" width="80" height="30" as="geometry" />
        </mxCell>
        <mxCell id="FA6ShiBXcQoJXibSyqjT-58" value="&amp;lt;include&amp;gt;" style="text;html=1;align=center;verticalAlign=middle;resizable=0;points=[];autosize=1;strokeColor=none;fillColor=none;" vertex="1" parent="1">
          <mxGeometry x="731" y="507" width="80" height="30" as="geometry" />
        </mxCell>
        <mxCell id="FA6ShiBXcQoJXibSyqjT-59" value="&amp;lt;include&amp;gt;" style="text;html=1;align=center;verticalAlign=middle;resizable=0;points=[];autosize=1;strokeColor=none;fillColor=none;" vertex="1" parent="1">
          <mxGeometry x="897.5" y="552" width="80" height="30" as="geometry" />
        </mxCell>
        <mxCell id="FA6ShiBXcQoJXibSyqjT-68" style="edgeStyle=orthogonalEdgeStyle;rounded=0;orthogonalLoop=1;jettySize=auto;html=1;exitX=1;exitY=0.5;exitDx=0;exitDy=0;endArrow=none;startFill=0;" edge="1" parent="1" source="FA6ShiBXcQoJXibSyqjT-63" target="FA6ShiBXcQoJXibSyqjT-17">
          <mxGeometry relative="1" as="geometry" />
        </mxCell>
        <mxCell id="FA6ShiBXcQoJXibSyqjT-70" style="edgeStyle=orthogonalEdgeStyle;rounded=0;orthogonalLoop=1;jettySize=auto;html=1;exitX=0;exitY=0.5;exitDx=0;exitDy=0;entryX=1;entryY=0.5;entryDx=0;entryDy=0;endArrow=none;startFill=0;" edge="1" parent="1" source="FA6ShiBXcQoJXibSyqjT-63" target="FA6ShiBXcQoJXibSyqjT-64">
          <mxGeometry relative="1" as="geometry" />
        </mxCell>
        <mxCell id="FA6ShiBXcQoJXibSyqjT-63" value="Acessar dados&lt;div&gt;e logs&lt;/div&gt;" style="ellipse;whiteSpace=wrap;html=1;" vertex="1" parent="1">
          <mxGeometry x="993" y="684" width="171" height="70" as="geometry" />
        </mxCell>
        <mxCell id="FA6ShiBXcQoJXibSyqjT-64" value="Verificar autenticidade dos dados e logs" style="ellipse;whiteSpace=wrap;html=1;" vertex="1" parent="1">
          <mxGeometry x="715" y="677" width="187" height="84" as="geometry" />
        </mxCell>
        <mxCell id="FA6ShiBXcQoJXibSyqjT-65" value="Excluir dados e logs" style="ellipse;whiteSpace=wrap;html=1;" vertex="1" parent="1">
          <mxGeometry x="440" y="674.5" width="180" height="89" as="geometry" />
        </mxCell>
        <mxCell id="FA6ShiBXcQoJXibSyqjT-66" value="" style="endArrow=none;dashed=1;html=1;rounded=0;entryX=0;entryY=0.5;entryDx=0;entryDy=0;exitX=1;exitY=0.5;exitDx=0;exitDy=0;" edge="1" parent="1" source="FA6ShiBXcQoJXibSyqjT-65" target="FA6ShiBXcQoJXibSyqjT-64">
          <mxGeometry width="50" height="50" relative="1" as="geometry">
            <mxPoint x="684" y="830" as="sourcePoint" />
            <mxPoint x="734" y="780" as="targetPoint" />
          </mxGeometry>
        </mxCell>
        <mxCell id="FA6ShiBXcQoJXibSyqjT-67" value="&amp;lt;extend&amp;gt;" style="text;html=1;align=center;verticalAlign=middle;resizable=0;points=[];autosize=1;strokeColor=none;fillColor=none;" vertex="1" parent="1">
          <mxGeometry x="636" y="689" width="72" height="24" as="geometry" />
        </mxCell>
      </root>
    </mxGraphModel>
  </diagram>
</mxfile>
